<?xml version="1.0" encoding="iso-8859-1"?>
<!-- Generator: Adobe Illustrator 28.1.0, SVG Export Plug-In . SVG Version: 6.00 Build 0)  -->
<svg version="1.1" id="&#xB808;&#xC774;&#xC5B4;_1" xmlns="http://www.w3.org/2000/svg" xmlns:xlink="http://www.w3.org/1999/xlink"
	 x="0px" y="0px" width="512px" height="512px" viewBox="0 0 512 512" enable-background="new 0 0 512 512" xml:space="preserve">
<path fill="#FFFFFF" d="M400.671,512H111.329C49.844,512,0,462.156,0,400.671l0-289.342C0,49.844,49.844,0,111.329,0l289.342,0
	C462.156,0,512,49.844,512,111.329v289.342C512,462.156,462.156,512,400.671,512z"/>
<g>
	<g>
		<linearGradient id="SVGID_1_" gradientUnits="userSpaceOnUse" x1="152.1596" y1="84.1263" x2="368.9933" y2="335.6705">
			<stop  offset="0" style="stop-color:#2C2C2C"/>
			<stop  offset="1" style="stop-color:#666666"/>
		</linearGradient>
		<rect x="128.278" y="76.867" fill="url(#SVGID_1_)" width="255.444" height="255.444"/>
	</g>
	<g>
		<path fill="#2C2C2C" d="M125.744,438.338h-12.631v-48.6h-0.334l-13.886,8.699v-11.125l14.973-9.536h11.878V438.338z"/>
		<path fill="#2C2C2C" d="M135.427,429.22l21.749-19.991c5.646-5.396,8.699-8.741,8.699-13.552c0-5.396-4.057-8.741-9.62-8.699
			c-5.688-0.042-9.41,3.555-9.369,9.369h-11.961c-0.042-11.837,8.741-19.407,21.498-19.407c12.965,0,21.582,7.403,21.582,17.901
			c0,6.9-3.346,12.547-15.81,23.84l-9.202,8.95v0.335h25.848v10.372h-43.33L135.427,429.22z"/>
		<path fill="#2C2C2C" d="M183.419,429.22l21.749-19.991c5.646-5.396,8.699-8.741,8.699-13.552c0-5.396-4.057-8.741-9.62-8.699
			c-5.688-0.042-9.41,3.555-9.369,9.369h-11.961c-0.042-11.837,8.741-19.407,21.498-19.407c12.965,0,21.582,7.403,21.582,17.901
			c0,6.9-3.346,12.547-15.81,23.84l-9.202,8.95v0.335h25.848v10.372h-43.33L183.419,429.22z"/>
		<path fill="#2C2C2C" d="M247.285,377.776h24.091c13.342,0,20.117,6.44,20.076,15.559c0.041,7.11-4.643,11.585-10.875,12.966v0.585
			c6.817,0.335,13.259,5.772,13.301,14.723c-0.042,9.619-7.236,16.729-20.913,16.729h-25.68V377.776z M269.536,403.122
			c5.27,0.042,9.243-2.928,9.201-7.779c0.042-4.392-3.221-7.361-8.95-7.361h-9.955v15.141H269.536z M270.456,427.966
			c7.277,0.041,10.414-2.97,10.372-7.528c0.042-5.103-3.848-8.7-10.038-8.7h-10.958v16.229H270.456z"/>
		<path fill="#2C2C2C" d="M297.535,377.776h23.756c13.761,0,21.665,8.49,21.665,20.41c0,12.087-8.03,20.41-21.999,20.41h-10.875
			v19.741h-12.547V377.776z M318.949,408.476c7.444,0,11.083-4.183,11.042-10.289c0.041-6.022-3.598-10.08-11.042-10.121h-8.867
			v20.41H318.949z"/>
		<path fill="#2C2C2C" d="M362.174,377.776l16.813,41.071h0.669l16.813-41.071h15.559v60.562h-12.213v-39.649h-0.502l-15.81,39.398
			h-8.364l-15.81-39.565h-0.502v39.816h-12.213v-60.562H362.174z"/>
	</g>
</g>
<g>
</g>
<g>
</g>
<g>
</g>
<g>
</g>
<g>
</g>
<g>
</g>
<g>
</g>
<g>
</g>
<g>
</g>
<g>
</g>
<g>
</g>
<g>
</g>
<g>
</g>
<g>
</g>
<g>
</g>
</svg>
